<svg width="80" height="81" viewBox="0 0 80 81" fill="none" xmlns="http://www.w3.org/2000/svg">
<path d="M18.7506 24.2508C21.5118 24.2508 23.7506 22.012 23.7506 19.2508C23.7506 16.4896 21.5118 14.2509 18.7506 14.2509C15.989 14.2509 13.7507 16.4896 13.7507 19.2508C13.7507 22.012 15.989 24.2508 18.7506 24.2508ZM18.7506 16.7509C20.131 16.7509 21.2506 17.8705 21.2506 19.2508C21.2506 20.6317 20.131 21.7508 18.7506 21.7508C17.3698 21.7508 16.2507 20.6317 16.2507 19.2508C16.2507 17.8705 17.3698 16.7509 18.7506 16.7509Z" fill="#69B99D"/>
<path d="M17.5007 36.7506C17.5007 33.9894 15.262 31.7507 12.5008 31.7507C9.7391 31.7507 7.50085 33.9894 7.50085 36.7506C7.50085 39.5118 9.7391 41.7505 12.5008 41.7505C15.262 41.7505 17.5007 39.5118 17.5007 36.7506ZM10.0008 36.7506C10.0008 35.3702 11.1199 34.2506 12.5008 34.2506C13.8811 34.2506 15.0007 35.3702 15.0007 36.7506C15.0007 38.1314 13.8811 39.2505 12.5008 39.2505C11.1199 39.2505 10.0008 38.1314 10.0008 36.7506Z" fill="#69B99D"/>
<path d="M15.0007 49.2503C12.239 49.2503 10.0007 51.489 10.0007 54.2502C10.0007 57.0114 12.239 59.2502 15.0007 59.2502C17.7618 59.2502 20.0006 57.0114 20.0006 54.2502C20.0006 51.489 17.7618 49.2503 15.0007 49.2503ZM15.0007 56.7502C13.6198 56.7502 12.5007 55.6311 12.5007 54.2502C12.5007 52.8699 13.6198 51.7503 15.0007 51.7503C16.381 51.7503 17.5006 52.8699 17.5006 54.2502C17.5006 55.6311 16.381 56.7502 15.0007 56.7502Z" fill="#69B99D"/>
<path d="M61.2499 24.2508C64.0111 24.2508 66.2498 22.012 66.2498 19.2508C66.2498 16.4896 64.0111 14.2509 61.2499 14.2509C58.4882 14.2509 56.25 16.4896 56.25 19.2508C56.25 22.012 58.4882 24.2508 61.2499 24.2508ZM61.2499 16.7509C62.6303 16.7509 63.7499 17.8705 63.7499 19.2508C63.7499 20.6317 62.6303 21.7508 61.2499 21.7508C59.8691 21.7508 58.75 20.6317 58.75 19.2508C58.75 17.8705 59.8691 16.7509 61.2499 16.7509Z" fill="#69B99D"/>
<path d="M62.5 36.7506C62.5 39.5118 64.7382 41.7505 67.4999 41.7505C70.2611 41.7505 72.4998 39.5118 72.4998 36.7506C72.4998 33.9894 70.2611 31.7507 67.4999 31.7507C64.7382 31.7507 62.5 33.9894 62.5 36.7506ZM69.9999 36.7506C69.9999 38.1314 68.8803 39.2505 67.4999 39.2505C66.1191 39.2505 65 38.1314 65 36.7506C65 35.3702 66.1191 34.2506 67.4999 34.2506C68.8803 34.2506 69.9999 35.3702 69.9999 36.7506Z" fill="#69B99D"/>
<path d="M70.8529 46.159C75.3792 44.5526 78.1208 39.9521 77.3796 35.2066C76.6379 30.4615 72.6238 26.9162 67.8231 26.7673C71.9144 23.1907 72.3958 16.9998 68.9071 12.8339C65.4179 8.66745 59.2388 8.05467 55.0001 11.455V4.25102C55.0001 3.56109 54.4405 3.00104 53.7501 3.00104H26.2506C25.5602 3.00104 25.0006 3.56109 25.0006 4.25102V11.4736C20.7673 8.06345 14.5833 8.66843 11.0907 12.8334C7.59803 16.9989 8.08045 23.1931 12.1766 26.7673C7.37636 26.9162 3.36226 30.4615 2.62058 35.2066C1.87889 39.9521 4.62054 44.5526 9.14684 46.159C5.49602 48.7977 4.06147 53.5529 5.64543 57.7697C7.22841 61.9864 11.4383 64.6226 15.9236 64.2056C20.4084 63.7886 24.0602 60.422 24.839 55.9855C26.2564 57.9611 28.002 59.6793 30.0005 61.0655V68H18.7507C15.3005 68.0044 12.5042 70.7997 12.5008 74.2499V76.7498C12.5008 77.4403 13.0603 77.9998 13.7508 77.9998H66.2499C66.9403 77.9998 67.4999 77.4403 67.4999 76.7498V74.2499C67.4955 70.7997 64.6997 68.0044 61.25 68H50.0002V61.0655C51.9977 59.6793 53.7438 57.9611 55.1612 55.9855C55.9322 60.4327 59.5874 63.8121 64.0815 64.233C68.5751 64.6543 72.7947 62.0128 74.3777 57.7853C75.9617 53.5588 74.5174 48.7952 70.8529 46.159ZM74.9998 36.7505C74.9998 40.8925 71.6414 44.2504 67.4999 44.2504C63.3574 44.2504 60 40.8925 60 36.7505C60 32.609 63.3574 29.2506 67.4999 29.2506C71.64 29.255 74.9954 32.6099 74.9998 36.7505ZM58.6773 32.0533C58.2769 30.7936 57.7813 29.567 57.1949 28.3834C58.3716 28.9064 59.6387 29.1959 60.9258 29.2345C60.0127 30.0309 59.2505 30.9859 58.6773 32.0533ZM61.25 11.7509C65.2328 11.746 68.5258 14.8563 68.7469 18.8343C68.9681 22.8118 66.0419 26.2682 62.082 26.7057C58.1226 27.1427 54.5118 24.4084 53.86 20.4783C54.5016 20.4275 54.9962 19.8943 55.0001 19.2508V15.1263C56.3765 13.0145 58.729 11.7445 61.25 11.7509ZM52.5001 18.0008H46.2502V5.501H52.5001V18.0008ZM43.7503 5.501V18.0008H36.2504V5.501H43.7503ZM21.3224 32.0533C20.7487 30.9854 19.9865 30.0309 19.0729 29.2345C20.36 29.1954 21.6271 28.9064 22.8038 28.3834C22.2179 29.5675 21.7228 30.7945 21.3224 32.0533ZM27.5005 5.501H33.7504V18.0008H27.5005V5.501ZM11.2508 19.2508C11.2454 15.9388 13.4158 13.0165 16.5881 12.0644C19.7609 11.1127 23.1818 12.3578 25.0006 15.1263V19.2508C25.0035 19.8943 25.4991 20.4275 26.1402 20.4783C25.4786 24.3054 22.0045 26.9933 18.134 26.674C14.2639 26.3552 11.2772 23.1345 11.2508 19.2508ZM5.00091 36.7505C5.00091 32.609 8.35828 29.2506 12.5008 29.2506C16.6423 29.2506 20.0007 32.609 20.0007 36.7505C20.0007 40.8925 16.6423 44.2504 12.5008 44.2504C8.36023 44.2465 5.00433 40.891 5.00091 36.7505ZM15.0007 61.7501C10.8582 61.7501 7.50087 58.3922 7.50087 54.2502C7.50087 50.1087 10.8582 46.7503 15.0007 46.7503C19.1423 46.7503 22.5006 50.1087 22.5006 54.2502C22.4962 58.3908 19.1408 61.7462 15.0007 61.7501ZM18.3537 44.8422C19.0124 44.3651 19.612 43.8109 20.1379 43.1918C20.2272 44.1195 20.3605 45.0326 20.5387 45.931C19.8586 45.4794 19.1242 45.1136 18.3537 44.8422ZM48.0798 59.3419C47.7185 59.5714 47.4997 59.9698 47.5002 60.3976V69.25C47.5002 69.9404 48.0598 70.4999 48.7502 70.4999H61.25C63.3208 70.4999 64.9999 72.1791 64.9999 74.2499V75.4999H15.0007V74.2499C15.0007 72.1791 16.6789 70.4999 18.7507 70.4999H31.2505C31.9409 70.4999 32.5005 69.9404 32.5005 69.25V60.3927C32.5005 59.9645 32.2817 59.566 31.9199 59.3365C26.1099 55.6491 22.5006 48.4319 22.5006 40.5004C22.3747 34.0933 24.9244 27.9225 29.5352 23.4719C29.1094 26.2136 28.8467 28.9782 28.7505 31.7506C28.7505 32.441 29.3101 33.0005 30.0005 33.0005C30.6909 33.0005 31.2505 32.441 31.2505 31.7506C31.4194 28.2785 31.7954 24.819 32.3755 21.3909C32.9321 21.0593 33.5073 20.762 34.1 20.5008H34.7905C34.2016 24.2248 33.8535 27.9826 33.7504 31.7506C33.7504 32.441 34.31 33.0005 35.0004 33.0005C35.6908 33.0005 36.2504 32.441 36.2504 31.7506C36.3652 27.9821 36.7221 24.2238 37.3202 20.5008H38.7504V31.7506C38.7504 32.441 39.3099 33.0005 40.0003 33.0005C40.6908 33.0005 41.2503 32.441 41.2503 31.7506V20.5008H42.6805C43.2776 24.2238 43.6351 27.9821 43.7503 31.7506C43.7503 32.441 44.3098 33.0005 45.0003 33.0005C45.6907 33.0005 46.2502 32.441 46.2502 31.7506C46.1462 27.9826 45.7991 24.2248 45.2102 20.5008H45.8987C46.4924 20.762 47.0701 21.0593 47.6277 21.3909C48.2068 24.819 48.5818 28.2785 48.7502 31.7506C48.7502 32.441 49.3098 33.0005 50.0002 33.0005C50.6906 33.0005 51.2502 32.441 51.2502 31.7506C51.153 28.9782 50.8913 26.2136 50.465 23.4719C55.0763 27.9225 57.6251 34.0933 57.5001 40.5004C57.5001 48.4319 53.8898 55.6491 48.0798 59.3365V59.3419ZM59.8618 43.1918C60.3887 43.8109 60.9873 44.3651 61.646 44.8422C60.876 45.1136 60.1421 45.4794 59.461 45.931C59.6387 45.0331 59.7725 44.12 59.8618 43.1918ZM64.9999 61.7501C60.8574 61.7501 57.5001 58.3922 57.5001 54.2502C57.5001 50.1087 60.8574 46.7503 64.9999 46.7503C69.1415 46.7503 72.4998 50.1087 72.4998 54.2502C72.4954 58.3908 69.14 61.7462 64.9999 61.7501Z" fill="#69B99D"/>
<path d="M64.9999 49.2503C62.2382 49.2503 60 51.489 60 54.2502C60 57.0114 62.2382 59.2502 64.9999 59.2502C67.7611 59.2502 69.9998 57.0114 69.9998 54.2502C69.9998 51.489 67.7611 49.2503 64.9999 49.2503ZM64.9999 56.7502C63.6191 56.7502 62.5 55.6311 62.5 54.2502C62.5 52.8699 63.6191 51.7503 64.9999 51.7503C66.3803 51.7503 67.4999 52.8699 67.4999 54.2502C67.4999 55.6311 66.3803 56.7502 64.9999 56.7502Z" fill="#69B99D"/>
<path d="M37.1341 38.3668C36.6459 37.8795 35.8544 37.8795 35.3666 38.3668C34.4667 39.3429 33.2006 39.8985 31.8735 39.8985C30.5459 39.8985 29.2798 39.3429 28.3799 38.3668C27.8887 37.8942 27.1094 37.9025 26.6275 38.3859C26.1465 38.8692 26.1416 39.6485 26.6167 40.1383C28.0601 41.5689 29.9926 42.3985 32.0239 42.4595C33.9731 42.4185 35.8207 41.5791 37.1341 40.1383C37.369 39.9039 37.5013 39.5851 37.5013 39.2525C37.5013 38.9205 37.369 38.6012 37.1341 38.3668Z" fill="#69B99D"/>
<path d="M53.3839 38.3668C52.8956 37.8795 52.1041 37.8795 51.6163 38.3668C50.7165 39.3429 49.4504 39.8985 48.1232 39.8985C46.7956 39.8985 45.5295 39.3429 44.6296 38.3668C44.1384 37.8942 43.3591 37.9025 42.8772 38.3859C42.3963 38.8692 42.3914 39.6485 42.8665 40.1383C44.3098 41.5689 46.2424 42.3985 48.2736 42.4595C50.2228 42.4185 52.0704 41.5791 53.3839 40.1383C53.6188 39.9039 53.7511 39.5851 53.7511 39.2525C53.7511 38.9205 53.6188 38.6012 53.3839 38.3668Z" fill="#69B99D"/>
<path d="M44.1165 49.6166C40.1473 53.5838 36.3115 50.0365 35.8818 49.6166C35.3906 49.1439 34.6103 49.1517 34.1294 49.6346C33.6479 50.1171 33.6416 50.8973 34.1167 51.3866C35.7309 52.9881 37.8935 53.9173 40.1664 53.9856C42.3475 53.9388 44.4143 52.9993 45.8841 51.3866C46.3577 50.8958 46.3508 50.1166 45.8689 49.6346C45.3865 49.1522 44.6067 49.1454 44.1165 49.619V49.6166Z" fill="#69B99D"/>
</svg>
