<svg width="80" height="81" viewBox="0 0 80 81" fill="none" xmlns="http://www.w3.org/2000/svg">
<path d="M40.0001 45.4888C41.5166 45.4893 42.8838 44.5757 43.4649 43.1743C44.0455 41.7734 43.7251 40.1606 42.6524 39.0879C41.168 37.6729 38.834 37.6729 37.3497 39.0879C36.2784 40.1597 35.9571 41.7725 36.5377 43.1733C37.1172 44.5747 38.4839 45.4883 40.0001 45.4888ZM39.1163 40.855C39.6045 40.3672 40.3956 40.3672 40.8838 40.855C41.3716 41.3433 41.3716 42.1348 40.8838 42.6226C40.3897 43.0957 39.6104 43.0957 39.1163 42.6226C38.6285 42.1348 38.6285 41.3433 39.1163 40.855Z" fill="#69B99D"/>
<path d="M55 27.9888C55.3316 27.9888 55.6495 27.8569 55.8838 27.6226L67.1339 16.3725C67.6075 15.8823 67.6007 15.1025 67.1187 14.6201C66.6363 14.1382 65.857 14.1313 65.3663 14.605L54.1162 25.855C53.7593 26.2129 53.6519 26.7505 53.8452 27.2173C54.0386 27.6841 54.4947 27.9888 55 27.9888Z" fill="#69B99D"/>
<path d="M48.75 34.2388C49.0816 34.2388 49.3994 34.1069 49.6338 33.8726L52.1338 31.3725C52.6075 30.8823 52.6006 30.1025 52.1187 29.6201C51.6363 29.1382 50.857 29.1313 50.3662 29.605L47.8662 32.105C47.5093 32.4629 47.4019 33.0005 47.5952 33.4673C47.7886 33.9341 48.2447 34.2388 48.75 34.2388Z" fill="#69B99D"/>
<path d="M16.25 62.9888C13.4888 62.9888 11.25 65.2275 11.25 67.9888C11.25 70.7505 13.4888 72.9888 16.25 72.9888C19.0112 72.9888 21.25 70.7505 21.25 67.9888C21.25 65.2275 19.0112 62.9888 16.25 62.9888ZM16.25 70.4888C14.8691 70.4888 13.75 69.3701 13.75 67.9888C13.75 66.6084 14.8691 65.4888 16.25 65.4888C17.6309 65.4888 18.75 66.6084 18.75 67.9888C18.75 69.3701 17.6309 70.4888 16.25 70.4888Z" fill="#69B99D"/>
<path d="M63.7964 72.9888C66.5576 72.9888 68.7964 70.7505 68.7964 67.9888C68.7964 65.2275 66.5576 62.9888 63.7964 62.9888C61.0347 62.9888 58.7964 65.2275 58.7964 67.9888C58.7964 70.7505 61.0347 72.9888 63.7964 72.9888ZM63.7964 65.4888C65.1768 65.4888 66.2964 66.6084 66.2964 67.9888C66.2964 69.3701 65.1768 70.4888 63.7964 70.4888C62.416 70.4888 61.2964 69.3701 61.2964 67.9888C61.2964 66.6084 62.416 65.4888 63.7964 65.4888Z" fill="#69B99D"/>
<path d="M76.25 46.7388C73.4888 46.7388 71.25 44.5005 71.25 41.7388C71.25 41.0483 70.6904 40.4888 70 40.4888C69.3096 40.4888 68.75 41.0483 68.75 41.7388C68.75 44.5005 66.5112 46.7388 63.75 46.7388C63.0596 46.7388 62.5 47.2983 62.5 47.9888C62.5 48.6792 63.0596 49.2388 63.75 49.2388C66.5112 49.2388 68.75 51.4775 68.75 54.2388C68.75 54.9292 69.3096 55.4888 70 55.4888C70.6904 55.4888 71.25 54.9292 71.25 54.2388C71.25 51.4775 73.4888 49.2388 76.25 49.2388C76.9404 49.2388 77.5 48.6792 77.5 47.9888C77.5 47.2983 76.9404 46.7388 76.25 46.7388ZM70 50.1021C69.4434 49.2637 68.7251 48.5454 67.8877 47.9888C68.7251 47.4326 69.4434 46.7144 70 45.8765C70.5566 46.7144 71.2749 47.4326 72.1123 47.9888C71.2749 48.5454 70.5566 49.2637 70 50.1021Z" fill="#69B99D"/>
<path d="M3.75 34.2388C6.51123 34.2388 8.75 36.4775 8.75 39.2388C8.75 39.9292 9.30957 40.4888 10 40.4888C10.6904 40.4888 11.25 39.9292 11.25 39.2388C11.25 36.4775 13.4888 34.2388 16.25 34.2388C16.9404 34.2388 17.5 33.6792 17.5 32.9888C17.5 32.2983 16.9404 31.7388 16.25 31.7388C13.4888 31.7388 11.25 29.5005 11.25 26.7388C11.25 26.0483 10.6904 25.4888 10 25.4888C9.30957 25.4888 8.75 26.0483 8.75 26.7388C8.75 29.5005 6.51123 31.7388 3.75 31.7388C3.05957 31.7388 2.5 32.2983 2.5 32.9888C2.5 33.6792 3.05957 34.2388 3.75 34.2388ZM10 30.8765C10.5566 31.7144 11.2749 32.4326 12.1123 32.9888C11.2749 33.5454 10.5566 34.2637 10 35.1021C9.44336 34.2637 8.7251 33.5454 7.8877 32.9888C8.7251 32.4326 9.44336 31.7144 10 30.8765Z" fill="#69B99D"/>
<path d="M32.75 45.9741L20 58.7216C18.8096 58.2353 17.5361 57.9868 16.25 57.9887C10.7271 57.9887 6.25 62.4663 6.25 67.9887C6.25 73.5117 10.7271 77.9887 16.25 77.9887C21.7729 77.9887 26.25 73.5117 26.25 67.9887C26.249 67.3911 26.1924 66.7944 26.083 66.2065L40.0239 52.5815L53.9639 66.2065C53.8535 66.7944 53.7979 67.3911 53.7964 67.9887C53.7964 73.5117 58.2734 77.9887 63.7964 77.9887C69.3188 77.9887 73.7964 73.5117 73.7964 67.9887C73.7964 62.4663 69.3188 57.9887 63.7964 57.9887C62.5103 57.9863 61.2363 58.2353 60.0464 58.7216L47.3115 45.9892L70.9761 18.77C76.4839 11.8852 71.0947 3.62789 71.04 3.54537C70.8369 3.24069 70.5103 3.04049 70.1465 2.99801C69.7812 2.95602 69.4165 3.07418 69.146 3.32272L40.0347 30.3642L10.9199 3.32272C10.6499 3.07418 10.2852 2.95602 9.91992 2.99801C9.55615 3.04049 9.22949 3.24069 9.02637 3.54537C8.9707 3.62789 3.58398 11.8852 9.12354 18.809L32.75 45.9741ZM23.8384 64.9052C23.5186 65.2182 23.3906 65.6782 23.502 66.1113C24.3057 69.2173 23.0444 72.4897 20.3652 74.2534C17.6855 76.0175 14.1816 75.8818 11.646 73.9165C9.11084 71.9511 8.10596 68.5908 9.14648 65.5566C10.1875 62.5219 13.042 60.4853 16.25 60.4887C17.4487 60.4878 18.6299 60.7763 19.6924 61.3315C20.1763 61.582 20.7661 61.4902 21.1514 61.1054L34.3872 47.8706C35.1274 48.5678 35.9824 49.1328 36.915 49.539L38.2349 50.83L23.8384 64.9052ZM60.3555 61.3315C61.417 60.7763 62.5977 60.4878 63.7964 60.4887C67.0293 60.4692 69.9165 62.5117 70.9736 65.5673C72.0308 68.6235 71.0229 72.0127 68.4678 73.9951C65.9131 75.977 62.3799 76.1113 59.6821 74.3281C56.9849 72.5449 55.7231 69.2412 56.5459 66.1137C56.6582 65.6811 56.5303 65.2207 56.21 64.9077L41.0508 50.0879C42.7725 49.8237 44.3711 49.0385 45.6323 47.8379L58.8955 61.1006C59.2793 61.4878 59.8701 61.5815 60.3555 61.3315ZM69.6724 6.24948C70.7251 8.48825 72.2471 13.1792 69.0576 17.1689L44.1162 45.8549C41.8516 48.1377 38.166 48.1523 35.8838 45.8881C33.6016 43.6235 33.5869 39.9375 35.8516 37.6557L69.6724 6.24948ZM10.3901 6.23873L38.1978 32.0654L34.1162 35.8549C32.7393 37.1899 31.8574 38.9531 31.6162 40.8549L11.0449 17.2075C7.79834 13.1504 9.32617 8.47506 10.3901 6.23873Z" fill="#69B99D"/>
</svg>
