<svg width="80" height="81" viewBox="0 0 80 81" fill="none" xmlns="http://www.w3.org/2000/svg">
<path d="M4.47216 9.33008L9.45849 66.6772V71.625C9.46288 75.0752 12.2583 77.8706 15.7085 77.875H28.2085C31.6587 77.8706 34.4541 75.0752 34.4585 71.625V66.6772L39.4443 9.33008L40.6714 4.42871C40.7646 4.05518 40.6811 3.65918 40.4438 3.35596C40.207 3.05273 39.8437 2.875 39.4585 2.875H4.45849C4.07324 2.875 3.71044 3.05273 3.47265 3.35596C3.23583 3.65918 3.15234 4.05518 3.2456 4.42871L4.47216 9.33008ZM33.2588 51.625H10.6587L10.0073 44.125H33.9097L33.2588 51.625ZM33.0415 54.125L32.0625 65.375H11.855L10.876 54.125H33.0415ZM17.5835 67.875H26.3335V69.125C26.3335 69.8154 25.7739 70.375 25.0835 70.375H18.8335C18.1431 70.375 17.5835 69.8154 17.5835 69.125V67.875ZM31.9585 71.625C31.9585 73.6958 30.2793 75.375 28.2085 75.375H15.7085C13.6377 75.375 11.9585 73.6958 11.9585 71.625V67.875H15.0835V69.125C15.0835 71.1958 16.7627 72.875 18.8335 72.875H25.0835C27.1543 72.875 28.8335 71.1958 28.8335 69.125V67.875H31.9585V71.625ZM34.127 41.625H9.79003L7.07226 10.375H36.8452L34.127 41.625ZM37.8569 5.375L37.2319 7.875H6.68456L6.05956 5.375H37.8569Z" fill="#69B99D"/>
<path d="M50.7085 77.875H68.2085C70.2793 77.875 71.9585 76.1958 71.9585 74.125V26.625C71.9556 24.1426 70.4834 21.8979 68.2085 20.9048V16.625C68.2085 15.9346 67.6489 15.375 66.9585 15.375H63.2085V10.375H75.7085C76.2139 10.375 76.67 10.0703 76.8633 9.60352C77.0567 9.13672 76.9493 8.59863 76.5923 8.24121L74.0923 5.74121C73.9014 5.55029 73.6533 5.42627 73.3863 5.38721L55.8862 2.88721C55.8272 2.87939 55.7676 2.875 55.7085 2.875H50.7085C50.0181 2.875 49.4585 3.43457 49.4585 4.125V9.125C49.4585 9.81543 50.0181 10.375 50.7085 10.375H55.7085V15.375H51.9585C51.2681 15.375 50.7085 15.9346 50.7085 16.625V20.9048C48.4336 21.8979 46.9614 24.1426 46.9585 26.625V74.125C46.9585 76.1958 48.6377 77.875 50.7085 77.875ZM69.4585 32.875H49.4585V30.375H69.4585V32.875ZM69.4585 60.375H49.4585V35.375H69.4585V60.375ZM68.2085 75.375H50.7085C50.0181 75.375 49.4585 74.8154 49.4585 74.125V62.875H69.4585V74.125C69.4585 74.8154 68.8989 75.375 68.2085 75.375ZM51.9585 5.375H55.6201L72.6197 7.80371L72.6909 7.875H51.9585V5.375ZM58.2085 10.375H60.7085V15.375H58.2085V10.375ZM53.2085 17.875H65.7085V20.375H53.2085V17.875ZM53.2085 22.875H65.7085C67.7793 22.875 69.4585 24.5542 69.4585 26.625V27.875H49.4585V26.625C49.4585 24.5542 51.1377 22.875 53.2085 22.875Z" fill="#69B99D"/>
<path d="M14.4585 49.125H29.4585C30.1489 49.125 30.7085 48.5654 30.7085 47.875C30.7085 47.1846 30.1489 46.625 29.4585 46.625H14.4585C13.7681 46.625 13.2085 47.1846 13.2085 47.875C13.2085 48.5654 13.7681 49.125 14.4585 49.125Z" fill="#69B99D"/>
<path d="M59.4585 70.375H54.4585V66.625C54.4585 65.9346 53.8989 65.375 53.2085 65.375C52.5181 65.375 51.9585 65.9346 51.9585 66.625V71.625C51.9585 72.3154 52.5181 72.875 53.2085 72.875H59.4585C60.1489 72.875 60.7085 72.3154 60.7085 71.625C60.7085 70.9346 60.1489 70.375 59.4585 70.375Z" fill="#69B99D"/>
<path d="M65.7085 70.375H64.4585C63.7681 70.375 63.2085 70.9346 63.2085 71.625C63.2085 72.3154 63.7681 72.875 64.4585 72.875H65.7085C66.3989 72.875 66.9585 72.3154 66.9585 71.625C66.9585 70.9346 66.3989 70.375 65.7085 70.375Z" fill="#69B99D"/>
<path d="M27.8134 62.8115C28.4687 63.0288 29.1752 62.6748 29.393 62.02L30.643 58.27C30.8617 57.6142 30.5073 56.9057 29.851 56.687C29.1948 56.4692 28.4867 56.8237 28.2685 57.4799L27.0185 61.23C26.914 61.5449 26.9389 61.8886 27.0878 62.185C27.2367 62.4819 27.498 62.707 27.8134 62.8115Z" fill="#69B99D"/>
</svg>
