<svg width="165" height="26" viewBox="0 0 165 26" fill="none" xmlns="http://www.w3.org/2000/svg">
<path d="M4.17677 6.87506C4.56757 6.24 5.12936 5.72706 5.86213 5.33625C6.59489 4.94545 7.4335 4.75004 8.37796 4.75004C9.50153 4.75004 10.5193 5.03501 11.4312 5.60494C12.343 6.17487 13.0595 6.98905 13.5806 8.04749C14.118 9.10593 14.3866 10.3353 14.3866 11.7357C14.3866 13.1361 14.118 14.3737 13.5806 15.4484C13.0595 16.5069 12.343 17.3292 11.4312 17.9154C10.5193 18.4853 9.50153 18.7703 8.37796 18.7703C7.41722 18.7703 6.57861 18.583 5.86213 18.2085C5.14565 17.8177 4.58386 17.3048 4.17677 16.6697V18.5749H0V0.5H4.17677V6.87506ZM10.1366 11.7357C10.1366 10.6936 9.84349 9.87941 9.25728 9.29319C8.68735 8.69069 7.97901 8.38945 7.13226 8.38945C6.30179 8.38945 5.59345 8.69069 5.00723 9.29319C4.4373 9.89569 4.15234 10.718 4.15234 11.7602C4.15234 12.8023 4.4373 13.6247 5.00723 14.2271C5.59345 14.8296 6.30179 15.1309 7.13226 15.1309C7.96272 15.1309 8.67106 14.8296 9.25728 14.2271C9.84349 13.6084 10.1366 12.7779 10.1366 11.7357Z" fill="#0F241D"/>
<path d="M29.4257 11.5403C29.4257 11.9311 29.4013 12.3382 29.3524 12.7616H19.8997C19.9649 13.6084 20.2336 14.2597 20.7058 14.7157C21.1943 15.1553 21.7887 15.3751 22.4889 15.3751C23.531 15.3751 24.2556 14.9355 24.6627 14.0562H29.1082C28.8802 14.9518 28.465 15.7578 27.8625 16.4743C27.2763 17.1908 26.5354 17.7526 25.6397 18.1597C24.7441 18.5668 23.7427 18.7703 22.6354 18.7703C21.3001 18.7703 20.1114 18.4853 19.0693 17.9154C18.0271 17.3455 17.2129 16.5313 16.6267 15.4729C16.0405 14.4144 15.7474 13.1769 15.7474 11.7602C15.7474 10.3435 16.0324 9.10593 16.6023 8.04749C17.1885 6.98905 18.0027 6.17487 19.0449 5.60494C20.087 5.03501 21.2839 4.75004 22.6354 4.75004C23.9544 4.75004 25.1268 5.02687 26.1527 5.58051C27.1786 6.13416 27.9765 6.92391 28.5464 7.94979C29.1326 8.97566 29.4257 10.1725 29.4257 11.5403ZM25.1512 10.4412C25.1512 9.72471 24.907 9.15478 24.4185 8.7314C23.93 8.30803 23.3193 8.09634 22.5866 8.09634C21.8864 8.09634 21.292 8.29989 20.8035 8.70698C20.3313 9.11407 20.0382 9.69214 19.9242 10.4412H25.1512Z" fill="#0F241D"/>
<path d="M30.7987 11.7357C30.7987 10.3353 31.0592 9.10593 31.5803 8.04749C32.1177 6.98905 32.8423 6.17487 33.7542 5.60494C34.6661 5.03501 35.6838 4.75004 36.8074 4.75004C37.7681 4.75004 38.6067 4.94545 39.3232 5.33625C40.056 5.72706 40.6178 6.24 41.0086 6.87506V4.94545H45.1853V18.5749H41.0086V16.6453C40.6015 17.2803 40.0315 17.7933 39.2988 18.1841C38.5823 18.5749 37.7437 18.7703 36.7829 18.7703C35.6757 18.7703 34.6661 18.4853 33.7542 17.9154C32.8423 17.3292 32.1177 16.5069 31.5803 15.4484C31.0592 14.3737 30.7987 13.1361 30.7987 11.7357ZM41.0086 11.7602C41.0086 10.718 40.7155 9.89569 40.1292 9.29319C39.5593 8.69069 38.8591 8.38945 38.0286 8.38945C37.1982 8.38945 36.4898 8.69069 35.9036 9.29319C35.3337 9.87941 35.0487 10.6936 35.0487 11.7357C35.0487 12.7779 35.3337 13.6084 35.9036 14.2271C36.4898 14.8296 37.1982 15.1309 38.0286 15.1309C38.8591 15.1309 39.5593 14.8296 40.1292 14.2271C40.7155 13.6247 41.0086 12.8023 41.0086 11.7602Z" fill="#0F241D"/>
<path d="M61.6655 4.94545V18.5749H57.4887V16.7186C57.0654 17.3211 56.4873 17.8096 55.7545 18.1841C55.038 18.5423 54.2401 18.7214 53.3608 18.7214C52.3187 18.7214 51.3986 18.4935 50.6007 18.0375C49.8028 17.5653 49.1841 16.8895 48.7444 16.0102C48.3047 15.1309 48.0849 14.0969 48.0849 12.9082V4.94545H52.2372V12.3464C52.2372 13.2583 52.4734 13.9666 52.9456 14.4714C53.4178 14.9762 54.0529 15.2286 54.8508 15.2286C55.665 15.2286 56.3082 14.9762 56.7804 14.4714C57.2526 13.9666 57.4887 13.2583 57.4887 12.3464V4.94545H61.6655Z" fill="#0F241D"/>
<path d="M72.262 15.0332V18.5749H70.137C68.6226 18.5749 67.442 18.2085 66.5953 17.4757C65.7485 16.7267 65.3251 15.5136 65.3251 13.8363V8.41387H63.6642V4.94545H65.3251V1.62357H69.5019V4.94545H72.2376V8.41387H69.5019V13.8852C69.5019 14.2923 69.5996 14.5854 69.795 14.7645C69.9904 14.9436 70.3161 15.0332 70.772 15.0332H72.262Z" fill="#0F241D"/>
<path d="M88.5111 4.94545L79.9621 25.0477H75.4678L78.5943 18.1108L73.0497 4.94545H77.715L80.8659 13.47L83.9923 4.94545H88.5111Z" fill="#0F241D"/>
<path d="M95.3957 18.7703C94.207 18.7703 93.1486 18.5668 92.2204 18.1597C91.2922 17.7526 90.5595 17.1989 90.0221 16.4987C89.4847 15.7822 89.1835 14.9843 89.1183 14.105H93.2463C93.2951 14.5772 93.5149 14.9599 93.9058 15.253C94.2966 15.5461 94.7769 15.6927 95.3469 15.6927C95.8679 15.6927 96.2669 15.595 96.5437 15.3996C96.8368 15.1879 96.9834 14.9192 96.9834 14.5935C96.9834 14.2027 96.7798 13.9178 96.3727 13.7386C95.9656 13.5432 95.3061 13.3315 94.3943 13.1036C93.4172 12.8756 92.6031 12.6395 91.9517 12.3952C91.3004 12.1347 90.7386 11.7357 90.2663 11.1984C89.7941 10.6447 89.558 9.90383 89.558 8.97566C89.558 8.19404 89.7697 7.4857 90.1931 6.85064C90.6327 6.19929 91.2678 5.68635 92.0983 5.31183C92.945 4.9373 93.9465 4.75004 95.1026 4.75004C96.8124 4.75004 98.1558 5.17342 99.1328 6.02017C100.126 6.86692 100.696 7.9905 100.843 9.39089H96.9834C96.9182 8.91867 96.7065 8.54414 96.3483 8.26732C96.0063 7.9905 95.5504 7.85208 94.9805 7.85208C94.492 7.85208 94.1174 7.94979 93.8569 8.14519C93.5964 8.32431 93.4661 8.57671 93.4661 8.90238C93.4661 9.29319 93.6696 9.5863 94.0767 9.7817C94.5001 9.97711 95.1515 10.1725 96.0308 10.3679C97.0404 10.6285 97.8627 10.889 98.4978 11.1495C99.1328 11.3938 99.6865 11.8009 100.159 12.3708C100.647 12.9245 100.9 13.6735 100.916 14.618C100.916 15.4159 100.688 16.1323 100.232 16.7674C99.7923 17.3862 99.1491 17.8747 98.3023 18.2329C97.4719 18.5912 96.503 18.7703 95.3957 18.7703Z" fill="#69B99D"/>
<path d="M102.641 11.7357C102.641 10.3353 102.901 9.10593 103.422 8.04749C103.96 6.98905 104.684 6.17487 105.596 5.60494C106.508 5.03501 107.526 4.75004 108.649 4.75004C109.61 4.75004 110.449 4.94545 111.165 5.33625C111.898 5.72706 112.46 6.24 112.851 6.87506V4.94545H117.027V18.5749H112.851V16.6453C112.444 17.2803 111.874 17.7933 111.141 18.1841C110.424 18.5749 109.586 18.7703 108.625 18.7703C107.518 18.7703 106.508 18.4853 105.596 17.9154C104.684 17.3292 103.96 16.5069 103.422 15.4484C102.901 14.3737 102.641 13.1361 102.641 11.7357ZM112.851 11.7602C112.851 10.718 112.558 9.89569 111.971 9.29319C111.401 8.69069 110.701 8.38945 109.871 8.38945C109.04 8.38945 108.332 8.69069 107.746 9.29319C107.176 9.87941 106.891 10.6936 106.891 11.7357C106.891 12.7779 107.176 13.6084 107.746 14.2271C108.332 14.8296 109.04 15.1309 109.871 15.1309C110.701 15.1309 111.401 14.8296 111.971 14.2271C112.558 13.6247 112.851 12.8023 112.851 11.7602Z" fill="#69B99D"/>
<path d="M124.226 0.5V18.5749H120.049V0.5H124.226Z" fill="#69B99D"/>
<path d="M133.457 18.7703C132.122 18.7703 130.917 18.4853 129.842 17.9154C128.783 17.3455 127.945 16.5313 127.326 15.4729C126.723 14.4144 126.422 13.1769 126.422 11.7602C126.422 10.3598 126.732 9.13035 127.35 8.07192C127.969 6.99719 128.816 6.17487 129.891 5.60494C130.965 5.03501 132.17 4.75004 133.506 4.75004C134.841 4.75004 136.046 5.03501 137.121 5.60494C138.195 6.17487 139.042 6.99719 139.661 8.07192C140.28 9.13035 140.589 10.3598 140.589 11.7602C140.589 13.1606 140.272 14.3981 139.636 15.4729C139.018 16.5313 138.163 17.3455 137.072 17.9154C135.997 18.4853 134.792 18.7703 133.457 18.7703ZM133.457 15.1553C134.255 15.1553 134.93 14.8622 135.484 14.276C136.054 13.6898 136.339 12.8512 136.339 11.7602C136.339 10.6692 136.062 9.83055 135.509 9.24434C134.971 8.65813 134.304 8.36502 133.506 8.36502C132.691 8.36502 132.016 8.65813 131.478 9.24434C130.941 9.81427 130.672 10.6529 130.672 11.7602C130.672 12.8512 130.933 13.6898 131.454 14.276C131.991 14.8622 132.659 15.1553 133.457 15.1553Z" fill="#69B99D"/>
<path d="M151.11 4.79889C152.705 4.79889 153.976 5.31997 154.92 6.36213C155.881 7.388 156.361 8.80468 156.361 10.6122V18.5749H152.209V11.174C152.209 10.2621 151.973 9.55373 151.5 9.04894C151.028 8.54414 150.393 8.29174 149.595 8.29174C148.797 8.29174 148.162 8.54414 147.69 9.04894C147.218 9.55373 146.982 10.2621 146.982 11.174V18.5749H142.805V4.94545H146.982V6.75294C147.405 6.15044 147.975 5.67821 148.691 5.33625C149.408 4.97801 150.214 4.79889 151.11 4.79889Z" fill="#69B99D"/>
<path d="M161.592 18.7702C160.86 18.7702 160.257 18.5585 159.785 18.1351C159.329 17.6955 159.101 17.1581 159.101 16.5231C159.101 15.8717 159.329 15.3262 159.785 14.8865C160.257 14.4469 160.86 14.2271 161.592 14.2271C162.309 14.2271 162.895 14.4469 163.351 14.8865C163.823 15.3262 164.059 15.8717 164.059 16.5231C164.059 17.1581 163.823 17.6955 163.351 18.1351C162.895 18.5585 162.309 18.7702 161.592 18.7702Z" fill="#0F241D"/>
</svg>
